<?xml version="1.0" encoding="UTF-8" standalone="no"?>
<svg
   xmlns:dc="http://purl.org/dc/elements/1.1/"
   xmlns:cc="http://creativecommons.org/ns#"
   xmlns:rdf="http://www.w3.org/1999/02/22-rdf-syntax-ns#"
   xmlns:svg="http://www.w3.org/2000/svg"
   xmlns="http://www.w3.org/2000/svg"
   xmlns:sodipodi="http://sodipodi.sourceforge.net/DTD/sodipodi-0.dtd"
   xmlns:inkscape="http://www.inkscape.org/namespaces/inkscape"
   version="1.1"
   x="0px"
   y="0px"
   viewBox="0 0 21 26.25"
   style="enable-background:new 0 0 21 21;"
   xml:space="preserve"
   id="svg16"
   sodipodi:docname="noun_Rat_1097184.svg"
   inkscape:version="0.92.4 (unknown)"><metadata
     id="metadata22"><rdf:RDF><cc:Work
         rdf:about=""><dc:format>image/svg+xml</dc:format><dc:type
           rdf:resource="http://purl.org/dc/dcmitype/StillImage" /></cc:Work></rdf:RDF></metadata><defs
     id="defs20" /><sodipodi:namedview
     pagecolor="#ffffff"
     bordercolor="#666666"
     borderopacity="1"
     objecttolerance="10"
     gridtolerance="10"
     guidetolerance="10"
     inkscape:pageopacity="0"
     inkscape:pageshadow="2"
     inkscape:window-width="1366"
     inkscape:window-height="725"
     id="namedview18"
     showgrid="false"
     inkscape:zoom="8.9904762"
     inkscape:cx="192.90628"
     inkscape:cy="12.902542"
     inkscape:window-x="0"
     inkscape:window-y="0"
     inkscape:window-maximized="1"
     inkscape:current-layer="svg16" /><g
     id="g10"
     style="fill:#a500a5;fill-opacity:1"><path
       d="M16.6,15.4l1.5-2.4c0.7-1.1,1-2.5,0.7-3.8c1.1-1.6,1.7-2.9,1.7-3.9c0-2.6-2.1-4.8-4.8-4.8c-2.6,0-4.6,2-4.7,4.5h-1   C9.9,2.5,7.8,0.5,5.3,0.5c-2.6,0-4.8,2.1-4.8,4.8c0,1,0.5,2.3,1.7,3.9c-0.3,1.3,0,2.7,0.7,3.8l1.5,2.4c-1,0.1-2.3,0.4-3.5,1.3   c-0.4,0.3-0.5,1-0.2,1.4c0.3,0.4,1,0.5,1.4,0.2c1.5-1.1,2.9-1,3.6-0.9l0.1,0.2c-0.9,0.1-2,0.4-2.9,1.1c-0.4,0.3-0.5,1-0.2,1.4   c0.3,0.4,1,0.5,1.4,0.2c1.1-0.9,2.9-0.8,3.5-0.7c0.8,0.6,1.9,0.9,2.9,0.9c1.1,0,2.1-0.3,2.9-0.9c0.6-0.1,2.3-0.2,3.5,0.7   c0.4,0.3,1.1,0.2,1.4-0.2c0.3-0.4,0.2-1.1-0.2-1.4c-0.9-0.7-2-1-2.9-1.1l0.1-0.2c0.6-0.1,2.1-0.2,3.6,0.9c0.4,0.3,1.1,0.2,1.4-0.2   c0.3-0.4,0.2-1.1-0.2-1.4C18.9,15.8,17.6,15.4,16.6,15.4z M15.8,2.5c1.5,0,2.8,1.2,2.8,2.8c0,0.2-0.1,0.7-0.7,1.7   C16.4,5.2,14.7,5,13,5C13.1,3.6,14.3,2.5,15.8,2.5z M5.3,2.5C6.7,2.5,7.9,3.6,8,5C7,5,4.8,4.9,3.2,7C2.6,5.9,2.5,5.4,2.5,5.2   C2.5,3.7,3.7,2.5,5.3,2.5z M7.9,17c-0.3-0.5-3-4.7-3.3-5.2C4,11.1,3.9,10.2,4.2,9.3C4.5,8.2,5.6,7,7.2,7C8,7,13,7,13.8,7   c1.4,0,2.6,0.9,3,2.2c0.3,0.9,0.2,1.8-0.4,2.6c-0.3,0.5-3,4.7-3.3,5.2c-0.6,0.9-1.6,1.5-2.6,1.5C9.4,18.5,8.4,18,7.9,17z"
       id="path2"
       style="fill:#a500a5;fill-opacity:1" /><path
       d="M14.2,11.2c0.4-0.4,0.4-1,0-1.4c-0.4-0.4-1-0.4-1.4,0c-0.4,0.4-0.4,1,0,1.4C13.2,11.6,13.8,11.6,14.2,11.2z"
       id="path4"
       style="fill:#a500a5;fill-opacity:1" /><path
       d="M6.8,9.8c-0.4,0.4-0.4,1.1,0,1.4c0.4,0.4,1,0.4,1.4,0c0.4-0.4,0.4-1,0-1.4C7.8,9.4,7.2,9.4,6.8,9.8z"
       id="path6"
       style="fill:#a500a5;fill-opacity:1" /><path
       d="M12,14.6c-1-0.5-2-0.5-3,0c-0.5,0.3-0.7,0.9-0.4,1.4c0.3,0.5,0.9,0.7,1.4,0.4c0.4-0.2,0.7-0.2,1,0c0.5,0.3,1.1,0.1,1.4-0.4   C12.6,15.5,12.5,14.9,12,14.6z"
       id="path8"
       style="fill:#a500a5;fill-opacity:1" /></g><text
     x="0"
     y="36"
     fill="#000000"
     font-size="5px"
     font-weight="bold"
     font-family="'Helvetica Neue', Helvetica, Arial-Unicode, Arial, Sans-serif"
     id="text12">Created by ProSymbols</text>
<text
     x="0"
     y="41"
     fill="#000000"
     font-size="5px"
     font-weight="bold"
     font-family="'Helvetica Neue', Helvetica, Arial-Unicode, Arial, Sans-serif"
     id="text14">from the Noun Project</text>
<g
     style="fill:#a500a5;fill-opacity:1"
     id="g837"
     transform="matrix(4,0,0,4,148.24576,-33.724576)"
     inkscape:export-xdpi="480"
     inkscape:export-ydpi="480"><path
       style="fill:#a500a5;fill-opacity:1"
       id="path829"
       d="M 16.6,15.4 18.1,13 c 0.7,-1.1 1,-2.5 0.7,-3.8 1.1,-1.6 1.7,-2.9 1.7,-3.9 0,-2.6 -2.1,-4.8 -4.8,-4.8 -2.6,0 -4.6,2 -4.7,4.5 H 10 C 9.9,2.5 7.8,0.5 5.3,0.5 2.7,0.5 0.5,2.6 0.5,5.3 c 0,1 0.5,2.3 1.7,3.9 -0.3,1.3 0,2.7 0.7,3.8 l 1.5,2.4 c -1,0.1 -2.3,0.4 -3.5,1.3 -0.4,0.3 -0.5,1 -0.2,1.4 0.3,0.4 1,0.5 1.4,0.2 1.5,-1.1 2.9,-1 3.6,-0.9 l 0.1,0.2 c -0.9,0.1 -2,0.4 -2.9,1.1 -0.4,0.3 -0.5,1 -0.2,1.4 0.3,0.4 1,0.5 1.4,0.2 1.1,-0.9 2.9,-0.8 3.5,-0.7 0.8,0.6 1.9,0.9 2.9,0.9 1.1,0 2.1,-0.3 2.9,-0.9 0.6,-0.1 2.3,-0.2 3.5,0.7 0.4,0.3 1.1,0.2 1.4,-0.2 0.3,-0.4 0.2,-1.1 -0.2,-1.4 -0.9,-0.7 -2,-1 -2.9,-1.1 l 0.1,-0.2 c 0.6,-0.1 2.1,-0.2 3.6,0.9 0.4,0.3 1.1,0.2 1.4,-0.2 0.3,-0.4 0.2,-1.1 -0.2,-1.4 -1.2,-0.9 -2.5,-1.3 -3.5,-1.3 z M 15.8,2.5 c 1.5,0 2.8,1.2 2.8,2.8 C 18.6,5.5 18.5,6 17.9,7 16.4,5.2 14.7,5 13,5 13.1,3.6 14.3,2.5 15.8,2.5 Z M 5.3,2.5 C 6.7,2.5 7.9,3.6 8,5 7,5 4.8,4.9 3.2,7 2.6,5.9 2.5,5.4 2.5,5.2 2.5,3.7 3.7,2.5 5.3,2.5 Z M 7.9,17 C 7.6,16.5 4.9,12.3 4.6,11.8 4,11.1 3.9,10.2 4.2,9.3 4.5,8.2 5.6,7 7.2,7 8,7 13,7 13.8,7 c 1.4,0 2.6,0.9 3,2.2 0.3,0.9 0.2,1.8 -0.4,2.6 -0.3,0.5 -3,4.7 -3.3,5.2 -0.6,0.9 -1.6,1.5 -2.6,1.5 C 9.4,18.5 8.4,18 7.9,17 Z"
       inkscape:connector-curvature="0" /><path
       style="fill:#a500a5;fill-opacity:1"
       id="path831"
       d="m 14.2,11.2 c 0.4,-0.4 0.4,-1 0,-1.4 -0.4,-0.4 -1,-0.4 -1.4,0 -0.4,0.4 -0.4,1 0,1.4 0.4,0.4 1,0.4 1.4,0 z"
       inkscape:connector-curvature="0" /><path
       style="fill:#a500a5;fill-opacity:1"
       id="path833"
       d="m 6.8,9.8 c -0.4,0.4 -0.4,1.1 0,1.4 0.4,0.4 1,0.4 1.4,0 0.4,-0.4 0.4,-1 0,-1.4 -0.4,-0.4 -1,-0.4 -1.4,0 z"
       inkscape:connector-curvature="0" /><path
       style="fill:#a500a5;fill-opacity:1"
       id="path835"
       d="m 12,14.6 c -1,-0.5 -2,-0.5 -3,0 -0.5,0.3 -0.7,0.9 -0.4,1.4 0.3,0.5 0.9,0.7 1.4,0.4 0.4,-0.2 0.7,-0.2 1,0 0.5,0.3 1.1,0.1 1.4,-0.4 0.2,-0.5 0.1,-1.1 -0.4,-1.4 z"
       inkscape:connector-curvature="0" /></g></svg>